<svg xmlns="http://www.w3.org/2000/svg" width="1000" height="320" viewBox="0 0 1000 320"><rect width="100%" height="100%" fill="white"/><line x1="64" y1="119" x2="988" y2="119" stroke="#eee"/><line x1="64" y1="185" x2="988" y2="185" stroke="#eee"/><text x="58" y="119" font-size="10" text-anchor="end" dominant-baseline="middle" fill="#666">+185</text><text x="58" y="185" font-size="10" text-anchor="end" dominant-baseline="middle" fill="#666">-185</text><line x1="64" y1="86" x2="988" y2="86" stroke="#eee"/><line x1="64" y1="218" x2="988" y2="218" stroke="#eee"/><text x="58" y="86" font-size="10" text-anchor="end" dominant-baseline="middle" fill="#666">+371</text><text x="58" y="218" font-size="10" text-anchor="end" dominant-baseline="middle" fill="#666">-371</text><line x1="64" y1="53" x2="988" y2="53" stroke="#eee"/><line x1="64" y1="251" x2="988" y2="251" stroke="#eee"/><text x="58" y="53" font-size="10" text-anchor="end" dominant-baseline="middle" fill="#666">+557</text><text x="58" y="251" font-size="10" text-anchor="end" dominant-baseline="middle" fill="#666">-557</text><line x1="64" y1="20" x2="988" y2="20" stroke="#eee"/><line x1="64" y1="284" x2="988" y2="284" stroke="#eee"/><text x="58" y="20" font-size="10" text-anchor="end" dominant-baseline="middle" fill="#666">+743</text><text x="58" y="284" font-size="10" text-anchor="end" dominant-baseline="middle" fill="#666">-743</text><line x1="64" y1="152" x2="988" y2="152" stroke="#333"/><text x="58" y="152" font-size="10" text-anchor="end" dominant-baseline="middle" fill="#666">0</text><rect x="963" y="20" width="18" height="132" fill="#6cc04a"/><rect x="963" y="152" width="18" height="10" fill="#e5533d"/><text x="79.4" y="310" font-size="10" text-anchor="middle" fill="#666">01-03</text><text x="141.0" y="310" font-size="10" text-anchor="middle" fill="#666">01-05</text><text x="202.6" y="310" font-size="10" text-anchor="middle" fill="#666">01-07</text><text x="264.2" y="310" font-size="10" text-anchor="middle" fill="#666">01-09</text><text x="325.8" y="310" font-size="10" text-anchor="middle" fill="#666">01-11</text><text x="387.4" y="310" font-size="10" text-anchor="middle" fill="#666">01-13</text><text x="449.0" y="310" font-size="10" text-anchor="middle" fill="#666">01-15</text><text x="510.6" y="310" font-size="10" text-anchor="middle" fill="#666">01-17</text><text x="572.2" y="310" font-size="10" text-anchor="middle" fill="#666">01-19</text><text x="633.8" y="310" font-size="10" text-anchor="middle" fill="#666">01-21</text><text x="695.4" y="310" font-size="10" text-anchor="middle" fill="#666">01-23</text><text x="757.0" y="310" font-size="10" text-anchor="middle" fill="#666">01-25</text><text x="818.6" y="310" font-size="10" text-anchor="middle" fill="#666">01-27</text><text x="880.2" y="310" font-size="10" text-anchor="middle" fill="#666">01-29</text><text x="941.8" y="310" font-size="10" text-anchor="middle" fill="#666">01-31</text><text x="972.6" y="310" font-size="10" text-anchor="middle" fill="#666">02-01</text><text x="64" y="18" font-size="12" fill="#111">Daily code churn (30 days): +743  -57</text></svg>